<?xml version="1.0" encoding="UTF-8"?>
<svg id="Layer_1" data-name="Layer 1" xmlns="http://www.w3.org/2000/svg" viewBox="0 0 287.44 335.43">
  <defs>
    <style>
      .cls-1 {
        fill: #d2813b;
      }
    </style>
  </defs>
  <path class="cls-1" d="M0,328.76c1.28,1.21,3.22,3.04,5.62,5.34,1.03.99,1.09,1.05,1.16,1.1,2.06,1.59,15.25-4.39,41.98-36.8,19.75-23.94,188.72-234.23,200.33-245.25,1.71-1.62,3.8-3.61,6.59-3.57,3.7.06,5.87,3.68,12.22,3.86.07,0,.45.01.84,0,5.99-.07,13.2-3.67,16.21-7.5,6.1-7.77-.08-22.82-7.02-31.21-10.51-12.73-29.13-17.89-39.92-12.82-1.88.88-11.37,5.34-11.37,11.37h0s0,9.38,3.63,15.97c.07.12.16.28.16.28.47.84.79,1.33.89,1.5,0,0,0,0,0,0,.58.9-58.61,73.94-204.68,251.78"/>
</svg>